<svg xmlns="http://www.w3.org/2000/svg" viewBox="0 0 512 512">
  <rect width="512" height="512" rx="50" fill="#3178C6"/>
  <path fill="#fff" d="M316.939 407.424v50.061c8.138 4.172 17.763 7.3 28.875 9.386 11.111 2.086 22.823 3.129 35.135 3.129 11.999 0 23.397-1.147 34.196-3.442 10.799-2.294 20.268-6.075 28.406-11.342 8.138-5.266 14.578-12.149 19.32-20.65 4.742-8.5 7.113-19.06 7.113-31.683 0-9.156-1.368-17.187-4.105-24.092-2.737-6.906-6.683-13.054-11.842-18.443-5.158-5.39-11.346-10.222-18.564-14.499-7.218-4.276-15.357-8.318-24.416-12.124-6.631-2.737-12.581-5.396-17.85-7.977-5.269-2.581-9.756-5.214-13.461-7.9-3.706-2.685-6.567-5.527-8.583-8.525-2.017-2.998-3.025-6.388-3.025-10.169 0-3.468.886-6.597 2.659-9.387 1.772-2.789 4.275-5.187 7.504-7.195 3.231-2.008 7.197-3.572 11.9-4.694 4.703-1.122 9.926-1.682 15.668-1.682 4.18 0 8.58.314 13.205.943 4.625.628 9.277 1.598 13.954 2.91 4.677 1.312 9.231 2.973 13.66 4.982 4.428 2.008 8.508 4.354 12.239 7.038v-46.778c-7.616-2.92-15.937-5.083-24.965-6.49-9.028-1.408-19.39-2.111-31.085-2.111-11.895 0-23.163 1.278-33.808 3.834-10.644 2.555-19.984 6.553-28.018 11.995-8.034 5.442-14.395 12.36-19.085 20.755-4.69 8.395-7.034 18.495-7.034 30.302 0 15.05 4.34 27.89 13.02 38.519 8.68 10.629 21.857 19.625 39.529 26.99 6.945 2.842 13.421 5.633 19.43 8.371 6.008 2.738 11.207 5.581 15.597 8.527 4.39 2.946 7.85 6.179 10.38 9.7 2.529 3.52 3.794 7.534 3.794 12.045 0 3.259-.785 6.283-2.355 9.073-1.57 2.79-3.952 5.214-7.146 7.273-3.194 2.058-7.184 3.677-11.97 4.853-4.787 1.177-10.395 1.766-16.823 1.766-10.957 0-21.83-1.927-32.616-5.781-10.787-3.854-20.752-9.635-29.896-17.343zM215.5 286.997H280V245.5H100v41.497h64.176V472.5H215.5z"/>
</svg>
